HIERARCHY
ROOT Hips
{
  OFFSET -102.467 93.6631 130.069
  CHANNELS 6 Xposition Yposition Zposition Zrotation Xrotation Yrotation
  JOINT LeftUpLeg
  {
    OFFSET 8.64259 1.95398 -2.38835
    CHANNELS 3 Zrotation Xrotation Yrotation
    JOINT LeftLeg
    {
      OFFSET 43.7702 0 0
      CHANNELS 3 Zrotation Xrotation Yrotation
      JOINT LeftFoot
      {
        OFFSET 40.6238 0 0
        CHANNELS 3 Zrotation Xrotation Yrotation
        JOINT LeftToeBase
        {
          OFFSET 12.7242 0 0
          CHANNELS 3 Zrotation Xrotation Yrotation
          End Site
          {
            OFFSET 0 0 0
          }
        }
      }
    }
  }
  JOINT RightUpLeg
  {
    OFFSET -8.2249 1.95398 -2.59336
    CHANNELS 3 Zrotation Xrotation Yrotation
    JOINT RightLeg
    {
      OFFSET 43.5653 0 0
      CHANNELS 3 Zrotation Xrotation Yrotation
      JOINT RightFoot
      {
        OFFSET 40.6238 0 0
        CHANNELS 3 Zrotation Xrotation Yrotation
        JOINT RightToeBase
        {
          OFFSET 12.7242 0 0
          CHANNELS 3 Zrotation Xrotation Yrotation
          End Site
          {
            OFFSET 0 0 0
          }
        }
      }
    }
  }
  JOINT Spine
  {
    OFFSET 0.165834 0.87714 6.61349
    CHANNELS 3 Zrotation Xrotation Yrotation
    JOINT Spine1
    {
      OFFSET 7.38963 1.71661e-005 0
      CHANNELS 3 Zrotation Xrotation Yrotation
      JOINT Spine2
      {
        OFFSET 11.9445 1.14441e-005 0
        CHANNELS 3 Zrotation Xrotation Yrotation
        JOINT Spine3
        {
          OFFSET 14.7254 4.19617e-005 0
          CHANNELS 3 Zrotation Xrotation Yrotation
          JOINT Spine4
          {
            OFFSET 10.9679 0 0
            CHANNELS 3 Zrotation Xrotation Yrotation
            JOINT RightShoulder
            {
              OFFSET 2.46616 -1.6653 3.69651
              CHANNELS 3 Zrotation Xrotation Yrotation
              JOINT RightArm
              {
                OFFSET 13.0012 0 0
                CHANNELS 3 Zrotation Xrotation Yrotation
                JOINT RightForeArm
                {
                  OFFSET 28.7848 1.52588e-005 0
                  CHANNELS 3 Zrotation Xrotation Yrotation
                  JOINT RightHand
                  {
                    OFFSET 26.5688 1.52588e-005 0
                    CHANNELS 3 Zrotation Xrotation Yrotation
                    End Site
                    {
                      OFFSET 0 0 0
                    }
                  }
                }
              }
            }
            JOINT LeftShoulder
            {
              OFFSET 2.38034 -1.29275 -3.7523
              CHANNELS 3 Zrotation Xrotation Yrotation
              JOINT LeftArm
              {
                OFFSET 16.3182 6.10351e-005 0
                CHANNELS 3 Zrotation Xrotation Yrotation
                JOINT LeftForeArm
                {
                  OFFSET 27.0901 0 0
                  CHANNELS 3 Zrotation Xrotation Yrotation
                  JOINT LeftHand
                  {
                    OFFSET 24.5451 1.52588e-005 0
                    CHANNELS 3 Zrotation Xrotation Yrotation
                    End Site
                    {
                      OFFSET 0 0 0
                    }
                  }
                }
              }
            }
            JOINT Neck
            {
              OFFSET 5.0226 -0.0266342 0
              CHANNELS 3 Zrotation Xrotation Yrotation
              JOINT Head
              {
                OFFSET 6.69363 2.86102e-005 0
                CHANNELS 3 Zrotation Xrotation Yrotation
                End Site
                {
                  OFFSET 0 0 0
                }
              }
            }
          }
        }
      }
    }
  }
}
MOTION
Frames:	13
Frame Time:	0.0416667
-329.645 96.1939 22.4147 92.5551 3.34457 91.1993 -175.9 1.07336 90.4492 -8.91543 18.419 3.09874 57.4544 2.65132 8.70756 37.8337 -0.725511 2.25062 175.64 5.40617 88.7717 -18.5147 3.67606 -0.673987 63.643 6.11895 13.1579 25.0505 1.61904 5.86052 -0.231212 7.31774 -90.2653 12.2371 -0.585202 -0.464005 0.566175 -0.605042 -0.437806 -21.9689 -0.418693 -0.61843 -1.95628 -0.418695 -0.618427 100.482 -52.2074 -84.7263 31.8295 -12.8712 -4.16709 -4.53607 -19.0619 -17.5793 -17.7398 -1.81789 6.76291 -79.7448 -50.4358 93.9945 -33.2449 7.14264 -12.941 16.0909 37.74 -23.7271 3.92947 0.170737 0.373184 -1.71152 -1.66824 -11.6263 -8.92934 -1.02402 19.0106 
-329.571 96.1563 22.4908 92.8505 3.6343 90.8944 -175.513 0.77303 90.3509 -8.70917 16.3558 2.6427 58.7014 3.32335 7.79083 36.5016 -0.995413 -0.727518 175.118 5.46345 88.3371 -19.4609 3.77902 -0.306877 64.6599 5.7739 12.8992 23.1525 1.92983 5.57629 -0.208978 7.31667 -90.2423 12.2394 -0.530136 -0.424404 0.568484 -0.54832 -0.400662 -21.9666 -0.37809 -0.564106 -1.95393 -0.378102 -0.564116 100.151 -51.3009 -85.2613 32.6583 -13.1204 -3.49512 -3.69829 -16.2796 -16.5987 -15.9489 -1.50471 5.8779 -78.8218 -50.212 95.3878 -33.7916 7.21256 -12.8683 12.2074 33.7549 -20.2725 -2.42615 -0.110501 -5.51996 6.53425 -0.278712 -6.65286 -22.2199 -0.456498 8.94581 
-329.241 96.2319 22.7919 92.4378 3.49903 91.2351 -175.914 1.20762 90.7881 -9.59922 20.5747 3.34653 56.993 2.27687 9.0915 39.4629 -0.568384 4.14304 175.204 5.41755 88.801 -18.9298 4.27227 -0.208733 64.1925 5.95736 13.4623 23.1755 1.90033 5.33488 -0.138713 7.30406 -90.2715 12.2648 -0.404431 -0.497111 0.593798 -0.425924 -0.478837 -21.9408 -0.236337 -0.595672 -1.92815 -0.236345 -0.595678 100.264 -51.6269 -85.0761 31.9592 -13.3664 -3.83391 -4.05549 -16.5721 -16.9163 -14.6987 -1.4609 6.4614 -80.4047 -51.7948 93.0607 -32.6498 6.57577 -11.2724 11.4122 31.354 -20.029 -1.44199 -0.0841214 -3.31972 4.93067 -0.464135 -6.39411 -20.0638 -0.546126 8.84496 
-328.876 96.1204 23.0933 92.2394 4.08253 91.1603 -176.088 1.26536 90.778 -9.61494 18.9262 3.58894 58.0661 2.57702 7.80412 38.3535 -0.68801 2.73632 174.786 5.33119 88.8902 -19.1711 5.03363 0.29607 65.5069 4.74993 12.5691 22.8312 2.09782 6.63144 -0.188263 7.3824 -90.2625 12.1079 -0.498244 -0.46887 0.43701 -0.518395 -0.446492 -22.0979 -0.334315 -0.596937 -2.08523 -0.334309 -0.596939 100.307 -51.6514 -85.0107 31.8069 -13.4585 -4.09533 -4.14603 -16.2682 -17.2722 -14.7701 -1.45229 6.35009 -81.9204 -52.9397 90.8843 -31.155 5.77091 -10.3025 11.4315 29.5955 -20.4997 -0.158714 -0.0513649 -2.44955 6.72881 -0.428084 -5.78837 -21.6147 -0.52122 8.06166 
-328.514 96.1084 23.5618 91.6018 4.61039 90.9791 -176.18 1.50057 90.7531 -9.02858 19.0184 3.59461 57.8711 2.65533 8.09852 38.8122 -0.807413 2.33727 174.972 6.25322 88.9048 -20.2603 6.88334 0.0319717 65.4462 6.26392 15.1778 22.3024 2.19398 6.67404 -0.258918 7.39933 -90.2462 12.074 -0.630999 -0.42204 0.403134 -0.64896 -0.393863 -22.1323 -0.474975 -0.592167 -2.11961 -0.475019 -0.592174 100.026 -51.0821 -85.4631 32.4598 -13.6485 -4.18128 -4.1849 -16.6498 -17.0264 -14.0466 -1.37177 6.29297 -81.5906 -52.9441 91.3688 -30.706 6.57813 -10.882 11.2173 30.3687 -20.3576 0.0425086 -0.0654356 -3.17921 6.17441 -0.0460603 -5.2435 -19.922 -0.146583 7.99147 
-327.892 96.0262 24.2464 91.5697 5.0141 90.7017 -176.226 1.2196 90.9405 -9.12615 19.7862 3.86047 57.9295 2.43485 7.42448 40.069 -0.607303 4.28956 175.088 6.47162 89.1802 -21.4804 6.59148 -0.0574454 65.9404 5.76524 14.5769 24.3074 1.79381 6.21756 -0.317482 7.47857 -90.2406 11.9155 -0.7447 -0.399759 0.24468 -0.761572 -0.366604 -22.2912 -0.590129 -0.605094 -2.27851 -0.590133 -0.605094 99.7884 -51.3343 -85.8172 32.3267 -13.7089 -4.05895 -3.40657 -16.2812 -16.228 -16.1276 -1.67636 6.98358 -81.8721 -53.1873 90.9722 -29.2429 8.64996 -11.9468 10.6806 32.5719 -20.3595 -0.789862 -0.0629432 -2.28197 5.95771 0.412087 -4.78014 -19.7577 0.114102 8.74067 
-326.963 95.9196 25.1956 91.2223 3.91372 90.9044 -175.533 1.05847 91.7597 -9.37269 19.0598 3.70559 58.4574 2.91597 7.38682 40.9042 -0.611358 4.63337 175.315 7.51289 89.7631 -23.5 5.16385 -0.00687218 65.2823 6.02736 14.751 26.6139 1.30022 5.58597 -0.252362 7.54018 -90.293 11.7919 -0.639387 -0.516226 0.120983 -0.661492 -0.48759 -22.4141 -0.454706 -0.684527 -2.40143 -0.454668 -0.68452 99.9816 -51.5341 -85.513 31.9677 -13.6711 -4.75069 -2.9195 -16.7208 -14.7102 -15.8563 -1.54112 6.18996 -81.2697 -52.8004 91.8306 -28.4857 9.88906 -14.9681 10.7805 37.1419 -19.496 -2.79118 -0.102176 -1.21898 5.87054 0.990304 -4.62015 -20.1147 0.61435 8.7849 
-325.403 95.7079 26.2389 91.4863 2.83053 90.6456 -176.255 0.358543 91.5991 -10.514 15.7919 4.5094 59.1548 3.77114 6.5756 42.9253 -0.79522 4.59862 175.291 7.09348 90.1094 -25.0606 4.16907 0.0628942 66.5356 5.49583 14.1724 27.032 1.1971 5.40173 -0.253091 7.58762 -90.2855 11.697 -0.637366 -0.502365 0.0261516 -0.658863 -0.47383 -22.509 -0.456927 -0.670693 -2.49631 -0.456916 -0.6707 100.105 -52.0321 -85.3044 31.9186 -13.2305 -3.77733 -3.28204 -16.5934 -15.2918 -15.0542 -1.48936 6.41626 -81.397 -52.2955 91.6134 -28.9254 9.54234 -14.9359 11.3902 35.3748 -20.4764 -1.31013 -0.0412776 0.667022 5.15907 1.14543 -6.05266 -19.917 0.684438 11.1992 
-323.635 94.8716 27.3528 91.3667 1.45322 90.4266 -177.237 3.49001 92.0824 -18.8485 14.6331 3.51096 59.5271 6.08283 9.22663 50.1179 -0.133978 9.28654 174.18 6.58736 90.1547 -26.7442 1.55669 1.40892 71.6552 1.26996 9.88874 25.5887 1.73978 7.53988 -0.173134 7.54375 -90.3075 11.7849 -0.488724 -0.561227 0.113917 -0.512943 -0.539182 -22.4206 -0.297509 -0.682171 -2.40795 -0.297488 -0.68217 100.181 -51.7975 -85.1974 32.4176 -12.7541 -2.88681 -3.28397 -17.0487 -14.8887 -15.342 -1.47468 6.0771 -81.3473 -52.0909 91.6741 -29.0375 9.12385 -12.7748 12.7282 29.6791 -24.647 -1.4876 -0.0621686 -0.699063 5.68801 1.99914 -5.82106 -21.4872 1.41666 10.7981 
-321.673 93.9408 28.2731 92.8042 0.877111 89.8629 -178.841 10.4661 91.5814 -36.605 13.0671 4.00706 57.8404 4.58716 7.0413 55.632 1.87186 16.5402 174.495 6.08455 89.8557 -31.6359 0.933996 0.591902 74.8941 3.21875 12.7442 24.9519 1.52188 4.98 -0.083945 7.76764 -90.3477 11.3372 -0.329109 -0.659841 -0.33388 -0.357814 -0.644725 -22.8678 -0.115572 -0.728237 -2.85512 -0.115572 -0.728245 99.5231 -51.5348 -86.2142 31.7278 -13.7647 -3.05007 -2.48449 -16.7315 -14.0811 -15.7743 -1.57683 6.52145 -79.1732 -51.1992 94.8758 -30.7648 9.23612 -13.2595 16.4626 30.3816 -29.0346 2.89157 0.0834614 -0.532014 6.55489 2.27614 -4.54578 -21.1611 1.6098 10.1347 
-319.132 93.1743 28.91 93.5524 0.529964 88.9201 -178.952 18.8233 90.2398 -51.028 9.47399 3.31904 57.7456 4.78917 7.41205 54.3282 1.93748 16.8307 173.794 4.53545 88.8967 -33.4752 -0.854122 0.893684 77.4551 1.92789 11.7671 27.5881 0.658352 2.53587 0.169361 7.88648 -90.3894 11.1007 0.15641 -0.79012 -0.570466 0.121487 -0.796246 -23.104 0.386614 -0.706599 -3.09133 0.386644 -0.706588 99.9011 -50.7953 -85.6672 31.39 -13.9661 -3.28339 -2.73575 -17.4844 -14.4005 -15.4053 -1.6582 7.42709 -79.0418 -52.8398 95.1132 -30.2934 9.14581 -12.4186 18.1611 30.7545 -31.6797 0.303413 0.00507166 -0.179913 6.12862 1.95155 -3.26338 -20.2653 1.25338 9.1127 
-316.143 93.3473 29.3066 93.014 -0.188673 87.3413 -177.769 22.4909 87.8566 -44.3845 11.0739 1.58457 57.9089 4.63253 8.63055 54.7342 2.17971 17.7193 173.165 2.65657 87.4932 -31.9284 -0.30252 0.692239 77.8976 0.453043 10.801 29.4629 0.867151 6.08655 0.423712 7.83742 -90.2131 11.2012 0.744181 -0.497609 -0.469607 0.721574 -0.529883 -23.0062 0.859289 -0.250944 -2.99359 0.859333 -0.25094 100.523 -51.3573 -84.6896 30.9771 -13.6346 -3.85852 -3.0067 -16.8585 -14.9257 -15.4389 -1.53788 6.48571 -80.3048 -51.4889 93.1929 -32.6311 7.90116 -10.4507 16.0198 30.0583 -28.5898 -2.37089 -0.0834691 -1.85435 8.18635 0.794685 -5.64398 -22.1458 0.243537 10.8891 
-312.829 93.5467 29.4449 91.5837 -0.451416 86.7939 -177.575 21.2379 86.5858 -20.9686 3.69368 0.121855 56.0881 2.88597 4.89129 48.6304 -0.370275 8.09411 174.134 1.27022 87.5417 -30.0536 1.60823 -0.807648 75.8505 3.01085 13.7545 31.3283 0.700529 7.07495 0.530675 7.79128 -90.1573 11.2933 0.982858 -0.410842 -0.37731 0.963838 -0.45372 -22.9154 1.06091 -0.0964245 -2.90274 1.06087 -0.0964375 100.679 -50.9272 -84.4622 30.2316 -14.9716 -5.5909 -2.97622 -14.1973 -16.6598 -15.5379 -1.21278 3.94451 -80.1867 -51.631 93.3768 -33.2864 7.62142 -9.75857 11.4176 29.0316 -22.1592 -2.03842 -0.0874456 -3.31406 11.7927 0.224804 -4.87763 -22.9793 -0.270349 10.0247 
